<svg enable-background="new 0 0 400 400" viewBox="0 0 400 400" xmlns="http://www.w3.org/2000/svg"><g fill="#fcfafa"><path d="m342.2 3.2-6.3 9.2h6.1v1.2h-8.2v-.5l6.2-9.1h-5.7v-1.2h7.8v.4z"/><path d="m344 13.7v-10.9h3.1c1.6 0 3 .5 4.1 1.4 1.1 1 1.6 2.2 1.6 3.9s-.5 3-1.6 4-2.5 1.5-4.2 1.5h-3zm1.4-9.6v8.4h1.6c1.4 0 2.5-.4 3.2-1.1.8-.8 1.2-1.8 1.2-3.2s-.4-2.4-1.2-3.1-1.8-1-3.1-1z"/><path d="m356.3 2.8v10.9h-1.4v-10.9z"/><path d="m366.6 13.2c-.8.4-1.8.6-3 .6-1.6 0-2.8-.5-3.7-1.5s-1.4-2.3-1.4-3.9c0-1.7.5-3.2 1.6-4.2s2.4-1.6 4-1.6c1 0 1.9.1 2.6.4v1.5c-.8-.4-1.6-.6-2.6-.6-1.2 0-2.2.4-3 1.2s-1.1 1.9-1.1 3.3c0 1.3.4 2.3 1.1 3.1s1.6 1.1 2.8 1.1c1.1 0 2-.2 2.8-.7v1.3z"/><path d="m368.2 13c0-.3.1-.5.3-.6.2-.2.4-.3.6-.3.3 0 .5.1.7.3s.3.4.3.6-.1.5-.3.6c-.2.2-.4.3-.7.3s-.5-.1-.6-.3c-.2-.2-.3-.4-.3-.6z"/><path d="m381.1 13.7h-1.7l-5.5-8.4c-.2-.2-.3-.5-.4-.7 0 .2.1.8.1 1.5v7.6h-1.4v-10.9h1.8l5.3 8.3c.3.4.4.6.4.8 0-.3-.1-.8-.1-1.6v-7.5h1.4v10.9z"/><path d="m389.7 13.7h-5.8v-10.9h5.6v1.2h-4.2v3.5h3.9v1.2h-3.9v3.7h4.4z"/><path d="m398.4 4.1h-3.1v9.6h-1.4v-9.6h-3.1v-1.3h7.7v1.3z"/></g><path d="m38.97 168.65c8.11-1.43 15.88-3.13 23.73-4.11 11.96-1.5 22.67-6.64 33.72-10.81 12.34-4.65 24.51-9.75 36.9-14.23 7.13-2.58 14.57-4.28 21.85-6.44 1.7-.51 3.41-1.13 4.97-1.98 5.42-2.96 7.02-10.04 3.3-15-4.24-5.63-8.61-11.16-13.06-16.64-.77-.95-2.09-1.65-3.29-2.02-8.11-2.53-16.23-5.02-24.4-7.31-1.44-.4-3.15.13-4.73.31-.42.05-.85.31-1.21.56-10.13 7.19-21.51 6.8-32.83 4.74-12.18-2.21-24.21-5.25-36.28-8.05-4.44-1.03-8.92-2.12-13.18-3.71-3.66-1.37-6.37-4.07-7.46-8.57 1.51-.45 2.94-.92 4.39-1.28 28.95-7.25 57.95-14.29 86.81-21.84 8.39-2.2 16.4-5.86 24.6-8.8 31.31-11.24 63.54-17.66 96.87-17.41 21.02.15 42.05.83 63.05 1.71 9.01.38 18.1 1.23 26.34 5.69 7.74 4.18 10.72 10.51 8.54 18.67-.26.96-.98 2.07-1.81 2.55-4.91 2.86-10.32 4.59-15.72 2.35-9.95-4.11-20.18-4.42-30.65-3.76-9.38.59-18.84.4-28.13 1.59-9.94 1.27-19.75 3.68-29.58 5.74-18.92 3.96-37.84 7.98-56.73 12.09-4.68 1.02-9.3 2.44-12.67 6.78 5.02 5.67 9.96 11.26 14.91 16.84 5.94 6.7 11.99 13.31 17.75 20.16 1.92 2.29 3.85 2.83 6.64 2.46 13.19-1.73 26.37-3.85 39.62-4.83 25.21-1.87 50.54-3.59 75.66.38 9.96 1.57 19.57 5.32 29.33 8.13 3.54 1.02 7.1 2.02 10.56 3.28 6.97 2.53 10.75 7.36 10.49 13.55-.06 1.33-.91 3.01-1.94 3.86-4.3 3.51-9.19 4.8-14.74 3.39-19.72-5.02-39.92-7.04-60.12-7.54-11.95-.3-24.06 1.8-35.95 3.74-13.11 2.14-26.04 5.42-39.07 8.03-2.44.49-3.67 1.59-3.47 3.94.74 8.66 1.13 17.39 2.48 25.95 2.84 18.02 5.86 35.97 5.09 54.35-.75 17.84-4.36 35.08-10.69 51.66-5.8 15.22-12.35 30.17-18.89 45.09-4.58 10.45-9.89 20.55-17.02 29.58-5.23 6.63-11.47 11.5-20.06 12.96-2.16.37-2.98-.33-3.76-2.12-1.38-3.18-.69-6.13.6-9.07 6.64-15.15 13.06-30.4 20.01-45.4 10.56-22.8 16.11-46.84 18.77-71.67 1.93-18 2.25-36-.81-53.86-1.58-9.21-4.33-18.23-6.7-27.3-.64-2.44-4.52-4.19-8.29-3.35-4.32.97-8.62 2.36-12.69 4.12-19.6 8.45-39.11 17.11-58.7 25.58-1.4.61-3.3.77-4.77.39-15.9-4.11-31.82-8.21-47.62-12.7-4.81-1.39-9.25-4.03-9.96-10.42z" fill="#010103"/></svg>